<svg width="100%" viewBox="0 0 680 680" role="img" style="" xmlns="http://www.w3.org/2000/svg">
<title style="fill:rgb(0, 0, 0);stroke:none;color:rgb(255, 255, 255);stroke-width:1px;stroke-linecap:butt;stroke-linejoin:miter;opacity:1;font-family:&quot;Anthropic Sans&quot;, -apple-system, BlinkMacSystemFont, &quot;Segoe UI&quot;, sans-serif;font-size:16px;font-weight:400;text-anchor:start;dominant-baseline:auto">Library app logo — golden open book on dark background</title>
<desc style="fill:rgb(0, 0, 0);stroke:none;color:rgb(255, 255, 255);stroke-width:1px;stroke-linecap:butt;stroke-linejoin:miter;opacity:1;font-family:&quot;Anthropic Sans&quot;, -apple-system, BlinkMacSystemFont, &quot;Segoe UI&quot;, sans-serif;font-size:16px;font-weight:400;text-anchor:start;dominant-baseline:auto">A stylized open book with golden pages on a dark navy circular background</desc>

<defs>
  <radialGradient id="bgGrad" cx="50%" cy="50%" r="50%">
    <stop offset="0%" stop-color="#1a1208"/>
    <stop offset="100%" stop-color="#0d0a04"/>
  </radialGradient>
  <linearGradient id="goldLeft" x1="0%" y1="0%" x2="100%" y2="100%">
    <stop offset="0%" stop-color="#f0c040"/>
    <stop offset="100%" stop-color="#b8860b"/>
  </linearGradient>
  <linearGradient id="goldRight" x1="100%" y1="0%" x2="0%" y2="100%">
    <stop offset="0%" stop-color="#f5d060"/>
    <stop offset="100%" stop-color="#c9a84c"/>
  </linearGradient>
  <linearGradient id="spineGold" x1="0%" y1="0%" x2="100%" y2="0%">
    <stop offset="0%" stop-color="#c9a84c"/>
    <stop offset="100%" stop-color="#f0c040"/>
  </linearGradient>
</defs>

<circle cx="340" cy="340" r="300" fill="url(#bgGrad)" style="stroke:none;color:rgb(255, 255, 255);stroke-width:1px;stroke-linecap:butt;stroke-linejoin:miter;opacity:1;font-family:&quot;Anthropic Sans&quot;, -apple-system, BlinkMacSystemFont, &quot;Segoe UI&quot;, sans-serif;font-size:16px;font-weight:400;text-anchor:start;dominant-baseline:auto"/>
<circle cx="340" cy="340" r="300" fill="none" stroke="#c9a84c" stroke-width="3" opacity="0.4" style="fill:none;stroke:rgb(201, 168, 76);color:rgb(255, 255, 255);stroke-width:3px;stroke-linecap:butt;stroke-linejoin:miter;opacity:0.4;font-family:&quot;Anthropic Sans&quot;, -apple-system, BlinkMacSystemFont, &quot;Segoe UI&quot;, sans-serif;font-size:16px;font-weight:400;text-anchor:start;dominant-baseline:auto"/>

<g transform="translate(340, 340)" style="fill:rgb(0, 0, 0);stroke:none;color:rgb(255, 255, 255);stroke-width:1px;stroke-linecap:butt;stroke-linejoin:miter;opacity:1;font-family:&quot;Anthropic Sans&quot;, -apple-system, BlinkMacSystemFont, &quot;Segoe UI&quot;, sans-serif;font-size:16px;font-weight:400;text-anchor:start;dominant-baseline:auto">

  <path d="M0 -140 C-20 -145 -80 -130 -140 -90 C-160 -75 -170 -55 -170 -30 L-170 120 C-170 130 -162 135 -152 128 C-110 95 -60 75 0 75 Z" fill="url(#goldLeft)" opacity="0.95" style="stroke:none;color:rgb(255, 255, 255);stroke-width:1px;stroke-linecap:butt;stroke-linejoin:miter;opacity:0.95;font-family:&quot;Anthropic Sans&quot;, -apple-system, BlinkMacSystemFont, &quot;Segoe UI&quot;, sans-serif;font-size:16px;font-weight:400;text-anchor:start;dominant-baseline:auto"/>

  <path d="M-168 -35 C-155 -50 -120 -80 -80 -100 C-50 -115 -20 -122 0 -120" fill="none" stroke="#f5d060" stroke-width="1.5" opacity="0.5" style="fill:none;stroke:rgb(245, 208, 96);color:rgb(255, 255, 255);stroke-width:1.5px;stroke-linecap:butt;stroke-linejoin:miter;opacity:0.5;font-family:&quot;Anthropic Sans&quot;, -apple-system, BlinkMacSystemFont, &quot;Segoe UI&quot;, sans-serif;font-size:16px;font-weight:400;text-anchor:start;dominant-baseline:auto"/>
  <path d="M-168 -5 C-155 -18 -118 -45 -75 -65 C-45 -78 -18 -85 0 -83" fill="none" stroke="#f5d060" stroke-width="1.2" opacity="0.4" style="fill:none;stroke:rgb(245, 208, 96);color:rgb(255, 255, 255);stroke-width:1.2px;stroke-linecap:butt;stroke-linejoin:miter;opacity:0.4;font-family:&quot;Anthropic Sans&quot;, -apple-system, BlinkMacSystemFont, &quot;Segoe UI&quot;, sans-serif;font-size:16px;font-weight:400;text-anchor:start;dominant-baseline:auto"/>
  <path d="M-168 25 C-152 14 -112 -8 -68 -25 C-40 -35 -15 -40 0 -38" fill="none" stroke="#f5d060" stroke-width="1" opacity="0.35" style="fill:none;stroke:rgb(245, 208, 96);color:rgb(255, 255, 255);stroke-width:1px;stroke-linecap:butt;stroke-linejoin:miter;opacity:0.35;font-family:&quot;Anthropic Sans&quot;, -apple-system, BlinkMacSystemFont, &quot;Segoe UI&quot;, sans-serif;font-size:16px;font-weight:400;text-anchor:start;dominant-baseline:auto"/>
  <path d="M-168 55 C-150 46 -108 28 -62 14 C-36 6 -12 2 0 4" fill="none" stroke="#f5d060" stroke-width="1" opacity="0.3" style="fill:none;stroke:rgb(245, 208, 96);color:rgb(255, 255, 255);stroke-width:1px;stroke-linecap:butt;stroke-linejoin:miter;opacity:0.3;font-family:&quot;Anthropic Sans&quot;, -apple-system, BlinkMacSystemFont, &quot;Segoe UI&quot;, sans-serif;font-size:16px;font-weight:400;text-anchor:start;dominant-baseline:auto"/>

  <path d="M-30 -148 C-45 -165 -65 -170 -75 -155 L-75 65 C-65 55 -45 42 -20 35 L0 75 L0 -120 C-8 -128 -18 -138 -30 -148 Z" fill="#8B6914" opacity="0.6" style="fill:rgb(139, 105, 20);stroke:none;color:rgb(255, 255, 255);stroke-width:1px;stroke-linecap:butt;stroke-linejoin:miter;opacity:0.6;font-family:&quot;Anthropic Sans&quot;, -apple-system, BlinkMacSystemFont, &quot;Segoe UI&quot;, sans-serif;font-size:16px;font-weight:400;text-anchor:start;dominant-baseline:auto"/>

  <path d="M0 -140 C20 -145 80 -130 140 -90 C160 -75 170 -55 170 -30 L170 120 C170 130 162 135 152 128 C110 95 60 75 0 75 Z" fill="url(#goldRight)" opacity="0.95" style="stroke:none;color:rgb(255, 255, 255);stroke-width:1px;stroke-linecap:butt;stroke-linejoin:miter;opacity:0.95;font-family:&quot;Anthropic Sans&quot;, -apple-system, BlinkMacSystemFont, &quot;Segoe UI&quot;, sans-serif;font-size:16px;font-weight:400;text-anchor:start;dominant-baseline:auto"/>

  <path d="M168 -35 C155 -50 120 -80 80 -100 C50 -115 20 -122 0 -120" fill="none" stroke="#fff8e0" stroke-width="1.5" opacity="0.5" style="fill:none;stroke:rgb(255, 248, 224);color:rgb(255, 255, 255);stroke-width:1.5px;stroke-linecap:butt;stroke-linejoin:miter;opacity:0.5;font-family:&quot;Anthropic Sans&quot;, -apple-system, BlinkMacSystemFont, &quot;Segoe UI&quot;, sans-serif;font-size:16px;font-weight:400;text-anchor:start;dominant-baseline:auto"/>
  <path d="M168 -5 C155 -18 118 -45 75 -65 C45 -78 18 -85 0 -83" fill="none" stroke="#fff8e0" stroke-width="1.2" opacity="0.4" style="fill:none;stroke:rgb(255, 248, 224);color:rgb(255, 255, 255);stroke-width:1.2px;stroke-linecap:butt;stroke-linejoin:miter;opacity:0.4;font-family:&quot;Anthropic Sans&quot;, -apple-system, BlinkMacSystemFont, &quot;Segoe UI&quot;, sans-serif;font-size:16px;font-weight:400;text-anchor:start;dominant-baseline:auto"/>
  <path d="M168 25 C152 14 112 -8 68 -25 C40 -35 15 -40 0 -38" fill="none" stroke="#fff8e0" stroke-width="1" opacity="0.35" style="fill:none;stroke:rgb(255, 248, 224);color:rgb(255, 255, 255);stroke-width:1px;stroke-linecap:butt;stroke-linejoin:miter;opacity:0.35;font-family:&quot;Anthropic Sans&quot;, -apple-system, BlinkMacSystemFont, &quot;Segoe UI&quot;, sans-serif;font-size:16px;font-weight:400;text-anchor:start;dominant-baseline:auto"/>
  <path d="M168 55 C150 46 108 28 62 14 C36 6 12 2 0 4" fill="none" stroke="#fff8e0" stroke-width="1" opacity="0.3" style="fill:none;stroke:rgb(255, 248, 224);color:rgb(255, 255, 255);stroke-width:1px;stroke-linecap:butt;stroke-linejoin:miter;opacity:0.3;font-family:&quot;Anthropic Sans&quot;, -apple-system, BlinkMacSystemFont, &quot;Segoe UI&quot;, sans-serif;font-size:16px;font-weight:400;text-anchor:start;dominant-baseline:auto"/>

  <path d="M30 -148 C45 -165 65 -170 75 -155 L75 65 C65 55 45 42 20 35 L0 75 L0 -120 C8 -128 18 -138 30 -148 Z" fill="#a07820" opacity="0.5" style="fill:rgb(160, 120, 32);stroke:none;color:rgb(255, 255, 255);stroke-width:1px;stroke-linecap:butt;stroke-linejoin:miter;opacity:0.5;font-family:&quot;Anthropic Sans&quot;, -apple-system, BlinkMacSystemFont, &quot;Segoe UI&quot;, sans-serif;font-size:16px;font-weight:400;text-anchor:start;dominant-baseline:auto"/>

  <path d="M-8 -142 C-4 -148 4 -148 8 -142 L12 75 C8 80 -8 80 -12 75 Z" fill="url(#spineGold)" style="stroke:none;color:rgb(255, 255, 255);stroke-width:1px;stroke-linecap:butt;stroke-linejoin:miter;opacity:1;font-family:&quot;Anthropic Sans&quot;, -apple-system, BlinkMacSystemFont, &quot;Segoe UI&quot;, sans-serif;font-size:16px;font-weight:400;text-anchor:start;dominant-baseline:auto"/>

  <path d="M-170 120 C-140 105 -80 88 0 88 C80 88 140 105 170 120 C170 132 162 138 152 132 C110 118 60 108 0 108 C-60 108 -110 118 -152 132 C-162 138 -170 132 -170 120 Z" fill="#c9a84c" opacity="0.7" style="fill:rgb(201, 168, 76);stroke:none;color:rgb(255, 255, 255);stroke-width:1px;stroke-linecap:butt;stroke-linejoin:miter;opacity:0.7;font-family:&quot;Anthropic Sans&quot;, -apple-system, BlinkMacSystemFont, &quot;Segoe UI&quot;, sans-serif;font-size:16px;font-weight:400;text-anchor:start;dominant-baseline:auto"/>

  <path d="M-170 -30 C-175 -45 -178 -65 -175 -80" fill="none" stroke="#c9a84c" stroke-width="2" opacity="0.5" stroke-linecap="round" style="fill:none;stroke:rgb(201, 168, 76);color:rgb(255, 255, 255);stroke-width:2px;stroke-linecap:round;stroke-linejoin:miter;opacity:0.5;font-family:&quot;Anthropic Sans&quot;, -apple-system, BlinkMacSystemFont, &quot;Segoe UI&quot;, sans-serif;font-size:16px;font-weight:400;text-anchor:start;dominant-baseline:auto"/>
  <path d="M170 -30 C175 -45 178 -65 175 -80" fill="none" stroke="#c9a84c" stroke-width="2" opacity="0.5" stroke-linecap="round" style="fill:none;stroke:rgb(201, 168, 76);color:rgb(255, 255, 255);stroke-width:2px;stroke-linecap:round;stroke-linejoin:miter;opacity:0.5;font-family:&quot;Anthropic Sans&quot;, -apple-system, BlinkMacSystemFont, &quot;Segoe UI&quot;, sans-serif;font-size:16px;font-weight:400;text-anchor:start;dominant-baseline:auto"/>
</g>

<circle cx="340" cy="340" r="300" fill="none" stroke="#c9a84c" stroke-width="1.5" opacity="0.25" style="fill:none;stroke:rgb(201, 168, 76);color:rgb(255, 255, 255);stroke-width:1.5px;stroke-linecap:butt;stroke-linejoin:miter;opacity:0.25;font-family:&quot;Anthropic Sans&quot;, -apple-system, BlinkMacSystemFont, &quot;Segoe UI&quot;, sans-serif;font-size:16px;font-weight:400;text-anchor:start;dominant-baseline:auto"/>
</svg>